<svg id="Layer_1" data-name="Layer 1" xmlns="http://www.w3.org/2000/svg" viewBox="0 0 106.47 122.88"><title>drum</title><path d="M53.23,26.58a121.47,121.47,0,0,1,17.93,1.29l-3,4.71a119.65,119.65,0,0,0-14.88-.91,122.65,122.65,0,0,0-12.66.65l-3.08-4.76a123.72,123.72,0,0,1,15.74-1ZM65.81,45.29a7.49,7.49,0,1,0,6.53,3.8L99.72,12.32c3.17-5.58-4.13-9.39-7.49-4.73L67.69,45.52a7.74,7.74,0,0,0-1.88-.23Zm-26.34-5.5A7.49,7.49,0,1,1,33,43.59L5.56,6.82C2.39,1.24,9.69-2.56,13.05,2.09L37.6,40a7.26,7.26,0,0,1,1.87-.24ZM21.14,79.29h.23V68.09C19.64,67.54,18,67,16.45,66.33A37.5,37.5,0,0,1,5.08,59.58v40.49c2,5.46,8.12,9.7,16.29,12.67V102.26h-.23a2.53,2.53,0,0,1-2.52-2.51V81.81a2.53,2.53,0,0,1,2.52-2.52Zm5.51,0h.24a2.52,2.52,0,0,1,2.51,2.52V99.75a2.52,2.52,0,0,1-2.51,2.51h-.24v11.49a2.81,2.81,0,0,1-.07.65l.61.16a104.4,104.4,0,0,0,23.3,3.21v-11.7h-.13a2.53,2.53,0,0,1-2.52-2.52V85.62a2.53,2.53,0,0,1,2.52-2.52h.13V72.47a112.89,112.89,0,0,1-23.84-2.93v9.75Zm52.93,0h.24V69.54A113,113,0,0,1,56,72.47V83.1h.13a2.52,2.52,0,0,1,2.51,2.52v17.93a2.52,2.52,0,0,1-2.51,2.52H56v11.74h.21A101.44,101.44,0,0,0,80,114.75a2.73,2.73,0,0,1-.18-1V102.26h-.24a2.53,2.53,0,0,1-2.52-2.51V81.81a2.53,2.53,0,0,1,2.52-2.52Zm5.51,0h.24a2.52,2.52,0,0,1,2.51,2.52V99.75a2.52,2.52,0,0,1-2.51,2.51h-.24v10.93c8.43-3,14.59-7.33,16.29-13V59.58A37.44,37.44,0,0,1,90,66.33c-1.55.63-3.2,1.21-4.93,1.76v11.2ZM106.46,50v50.51h0a3,3,0,0,1-.08.65c-2.12,7.94-10,13.65-20.67,17.2-8.53,2.85-18.91,4.35-29.44,4.53a113.45,113.45,0,0,1-30.36-3.4c-12.72-3.4-22.67-9.37-25.67-17.95a2.5,2.5,0,0,1-.22-1V50c0-.14,0-.29,0-.43,0-6.78,6.29-12.7,16.45-16.79l.07,0,3.15,4.22-1.33.52C10.15,40.76,5.09,45,5.09,49.54s5.06,8.78,13.25,12.08c8.88,3.58,21.21,5.79,34.89,5.79,3.17,0,6.27-.12,9.27-.35,3.43-.25,6.77-.66,10.17-1.24a76.32,76.32,0,0,0,15.46-4.2c8.18-3.3,13.24-7.58,13.24-12.08,0-4.33-4.68-8.46-12.33-11.7l3.12-4.18c8.89,4,14.31,9.59,14.31,15.88,0,.14,0,.29,0,.43Z"/></svg>