<svg width="344.909375px" height="121.39999999999999px" xmlns="http://www.w3.org/2000/svg" viewBox="77.5453125 14.300000000000004 344.909375 121.39999999999999" style="background: rgba(0, 0, 0, 0);" preserveAspectRatio="xMidYMid"><defs>
  <filter id="editing-scratch" x="-100%" y="-100%" width="300%" height="300%">
    <!-- COLOR -->
    <feFlood flood-color="#ddd" flood-opacity="0.75" result="COLOR-blu"></feFlood>
    <feFlood flood-color="#666" flood-opacity="0.4" result="COLOR-red"></feFlood>
    <!-- COLOR END -->

    <!-- Texture -->
    <feTurbulence baseFrequency=".05" type="fractalNoise" numOctaves="3" seed="0" result="Texture_10"></feTurbulence>
    <feColorMatrix type="matrix" values="0 0 0 0 0,
    0 0 0 0 0,
    0 0 0 0 0,
    0 0 0 -2.1 1.1" in="Texture_10" result="Texture_20"></feColorMatrix>

    <feColorMatrix result="Texture_30" type="matrix" values="0 0 0 0 0,
    0 0 0 0 0,
    0 0 0 0 0,
    0 0 0 -1.7 1.8" in="Texture_10"></feColorMatrix>
    <!-- Texture -->

    <!-- FILL -->
    <feOffset dx="-3" dy="4" in="SourceAlpha" result="FILL_10"></feOffset>
    <feDisplacementMap scale="17" in="FILL_10" in2="Texture_10" result="FILL_20"></feDisplacementMap>
    <feComposite operator="in" in="Texture_30" in2="FILL_20" result="FILL_40"></feComposite>
    <feComposite operator="in" in="COLOR-blu" in2="FILL_40" result="FILL_50"></feComposite>
    <!-- FILL END-->

    <!-- OUTLINE -->
    <feMorphology operator="dilate" radius="3" in="SourceGraphic" result="OUTLINE_10"></feMorphology>
    <feComposite operator="out" in="OUTLINE_10" in2="SourceGraphic" result="OUTLINE_20"></feComposite>
    <feDisplacementMap scale="7" in="OUTLINE_20" in2="Texture_10" result="OUTLINE_30"></feDisplacementMap>
    <feComposite operator="arithmetic" k2="-1" k3="1" in="Texture_20" in2="OUTLINE_30" result="OUTLINE_40"></feComposite>
    <!-- OUTLINE END-->

    <!-- BEVEL OUTLINE -->
    <feConvolveMatrix order="8,8" divisor="1" kernelMatrix="1 0 0 0 0 0 0 0 0 1 0 0 0 0 0 0 0 0 1 0 0 0 0 0 0 0 0 1 0 0 0 0 0 0 0 0 1 0 0 0 0 0 0 0 0 1 0 0 0 0 0 0 0 0 1 0 0 0 0 0 0 0 0 1 " in="SourceGraphic" result="BEVEL_10"></feConvolveMatrix>
    <feMorphology operator="dilate" radius="2" in="BEVEL_10" result="BEVEL_20"></feMorphology>
    <feComposite operator="out" in="BEVEL_20" in2="BEVEL_10" result="BEVEL_30"></feComposite>
    <feDisplacementMap scale="7" in="BEVEL_30" in2="Texture_10" result="BEVEL_40"></feDisplacementMap>
    <feComposite operator="arithmetic" k2="-1" k3="1" in="Texture_20" in2="BEVEL_40" result="BEVEL_50"></feComposite>
    <feOffset dx="-7" dy="-7" in="BEVEL_50" result="BEVEL_60"></feOffset>
    <feComposite operator="out" in="BEVEL_60" in2="OUTLINE_10" result="BEVEL_70"></feComposite>
    <!-- BEVEL OUTLINE END -->

    <!-- BEVEL FILL -->
    <feOffset dx="-9" dy="-9" in="BEVEL_10" result="BEVEL-FILL_10"></feOffset>
    <feComposite operator="out" in="BEVEL-FILL_10" in2="OUTLINE_10" result="BEVEL-FILL_20"></feComposite>
    <feDisplacementMap scale="17" in="BEVEL-FILL_20" in2="Texture_10" result="BEVEL-FILL_30"></feDisplacementMap>
    <feComposite operator="in" in="COLOR-red" in2="BEVEL-FILL_30" result="BEVEL-FILL_50"></feComposite> <!-- -->
    <!-- BEVEL FILL END-->

    <feMerge result="merge2">
     <feMergeNode in="BEVEL-FILL_50"></feMergeNode>
     <feMergeNode in="BEVEL_70"></feMergeNode>
     <feMergeNode in="FILL_50"></feMergeNode>
      <feMergeNode in="OUTLINE_40"></feMergeNode>
    </feMerge>
  </filter>
</defs>
<g filter="url(#editing-scratch)"><g transform="translate(131.50498655438423, 98.68000030517578)"><path d="M26.11-42.69L26.11-42.69L26.11-42.69Q41.79-42.69 41.79-31.62L41.79-31.62L41.79-31.62Q41.79-25.54 37.89-21.89L37.89-21.89L37.89-21.89Q34.05-18.24 27.33-18.24L27.33-18.24L27.33-18.24Q24.19-18.24 21.76-20.03L21.76-20.03L21.76-20.03Q20.61-20.80 19.84-21.82L19.84-21.82L19.84-21.82Q24.51-21.82 26.98-24.67L26.98-24.67L26.98-24.67Q29.44-27.52 29.44-33.09L29.44-33.09L29.44-33.09Q29.44-38.66 23.94-38.66L23.94-38.66L22.40-38.66L22.40-38.66Q22.02-38.66 21.70-38.59L21.70-38.59L14.34 0L0.45 0L8.32-41.92L8.32-41.92Q15.17-42.56 19.14-42.62L19.14-42.62L19.14-42.62Q23.10-42.69 26.11-42.69ZM44.90-1.92L44.90-1.92L44.90-1.92Q43.39-3.58 42.72-6.21L42.72-6.21L42.72-6.21Q42.05-8.83 42.05-13.12L42.05-13.12L42.05-13.12Q42.05-17.41 43.52-21.31L43.52-21.31L43.52-21.31Q44.99-25.22 47.68-28.03L47.68-28.03L47.68-28.03Q53.18-33.92 62.27-33.92L62.27-33.92L62.27-33.92Q65.54-33.92 67.90-32.83L67.90-32.83L78.85-33.92L74.11-8.96L74.11-8.96Q73.92-8.19 73.92-6.78L73.92-6.78L73.92-6.78Q73.92-5.38 74.78-4.48L74.78-4.48L74.78-4.48Q75.65-3.58 76.93-3.46L76.93-3.46L76.93-3.46Q76.29-1.28 73.95 0L73.95 0L73.95 0Q71.62 1.28 68.99 1.28L68.99 1.28L68.99 1.28Q66.37 1.28 64.61 0.29L64.61 0.29L64.61 0.29Q62.85-0.70 62.34-2.37L62.34-2.37L62.34-2.37Q61.31-0.77 59.14 0.26L59.14 0.26L59.14 0.26Q56.96 1.28 54.05 1.28L54.05 1.28L54.05 1.28Q51.14 1.28 48.77 0.51L48.77 0.51L48.77 0.51Q46.40-0.26 44.90-1.92ZM58.40-27.90L58.40-27.90L58.40-27.90Q57.66-26.75 57.02-24.80L57.02-24.80L57.02-24.80Q56.38-22.85 55.33-17.63L55.33-17.63L55.33-17.63Q54.27-12.42 54.27-8.70L54.27-8.70L54.27-8.70Q54.27-4.99 54.85-3.90L54.85-3.90L54.85-3.90Q55.42-2.82 56.45-2.82L56.45-2.82L56.45-2.82Q58.50-2.82 60-4.77L60-4.77L60-4.77Q61.50-6.72 62.08-10.18L62.08-10.18L65.47-28.93L65.47-28.93Q64.13-30.08 62.56-30.08L62.56-30.08L62.56-30.08Q60.99-30.08 60.06-29.57L60.06-29.57L60.06-29.57Q59.14-29.06 58.40-27.90ZM97.60-3.52L97.60-3.52L97.60-3.52Q95.62 1.28 89.28 1.28L89.28 1.28L89.28 1.28Q86.08 1.28 84.03-0.96L84.03-0.96L84.03-0.96Q82.37-2.82 82.37-4.93L82.37-4.93L82.37-4.93Q82.37-9.73 84.61-20.22L84.61-20.22L89.28-44.80L102.27-46.08L96.06-13.70L96.06-13.70Q94.98-8.96 94.98-7.30L94.98-7.30L94.98-7.30Q94.98-3.65 97.60-3.52ZM116.99 1.28L116.99 1.28L116.99 1.28Q102.91 1.28 102.91-11.97L102.91-11.97L102.91-11.97Q102.91-21.38 108.10-27.46L108.10-27.46L108.10-27.46Q113.60-33.92 123.14-33.92L123.14-33.92L123.14-33.92Q130.05-33.92 133.57-30.72L133.57-30.72L133.57-30.72Q137.09-27.52 137.09-20.80L137.09-20.80L137.09-20.80Q137.09-10.56 131.58-4.61L131.58-4.61L131.58-4.61Q126.21 1.28 116.99 1.28ZM118.66-26.56L118.66-26.56L118.66-26.56Q117.89-24.83 117.28-22.24L117.28-22.24L117.28-22.24Q116.67-19.65 115.90-15.55L115.90-15.55L115.90-15.55Q115.14-11.46 115.14-6.40L115.14-6.40L115.14-6.40Q115.14-4.74 115.68-3.65L115.68-3.65L115.68-3.65Q116.22-2.56 117.70-2.56L117.70-2.56L117.70-2.56Q119.17-2.56 120.10-3.26L120.10-3.26L120.10-3.26Q121.02-3.97 121.73-5.63L121.73-5.63L121.73-5.63Q123.01-8.58 124.03-14.05L124.03-14.05L124.03-14.05Q125.06-19.52 125.15-21.89L125.15-21.89L125.15-21.89Q125.25-24.26 125.25-26.02L125.25-26.02L125.25-26.02Q125.25-27.78 124.74-28.93L124.74-28.93L124.74-28.93Q124.22-30.08 122.78-30.08L122.78-30.08L122.78-30.08Q121.34-30.08 120.38-29.18L120.38-29.18L120.38-29.18Q119.42-28.29 118.66-26.56ZM186.94 1.28L186.94 1.28L186.94 1.28Q179.20 1.28 179.20-4.74L179.20-4.74L179.20-4.74Q179.20-7.36 180.32-12.45L180.32-12.45L180.32-12.45Q181.44-17.54 181.82-19.58L181.82-19.58L181.82-19.58Q182.72-24.26 182.72-25.73L182.72-25.73L182.72-25.73Q182.72-28.99 180.29-28.99L180.29-28.99L180.29-28.99Q178.69-28.99 177.15-26.78L177.15-26.78L177.15-26.78Q175.62-24.58 174.91-20.16L174.91-20.16L170.94 0L158.46 1.28L161.92-16.13L161.92-16.13Q162.50-19.01 163.01-22.27L163.01-22.27L163.01-22.27Q163.52-25.54 163.52-26.05L163.52-26.05L163.52-26.05Q163.52-28.99 161.34-28.99L161.34-28.99L161.34-28.99Q159.87-28.99 158.27-26.82L158.27-26.82L158.27-26.82Q156.67-24.64 155.78-20.16L155.78-20.16L151.87 0L139.26 1.28L145.98-32.64L156.42-33.92L155.33-27.46L155.33-27.46Q156.99-30.91 160.06-32.42L160.06-32.42L160.06-32.42Q163.14-33.92 167.94-33.92L167.94-33.92L167.94-33.92Q170.69-33.92 172.48-32.58L172.48-32.58L172.48-32.58Q174.27-31.23 174.85-29.06L174.85-29.06L174.85-29.06Q175.94-31.30 178.72-32.61L178.72-32.61L178.72-32.61Q181.50-33.92 184.93-33.92L184.93-33.92L184.93-33.92Q188.35-33.92 190.05-33.18L190.05-33.18L190.05-33.18Q191.74-32.45 192.77-31.23L192.77-31.23L192.77-31.23Q194.50-28.99 194.50-24.90L194.50-24.90L194.50-24.90Q194.50-20.86 192.77-12.48L192.77-12.48L192.77-12.48Q191.87-8.38 191.87-6.88L191.87-6.88L191.87-6.88Q191.87-5.38 192.74-4.48L192.74-4.48L192.74-4.48Q193.60-3.58 194.88-3.46L194.88-3.46L194.88-3.46Q194.24-1.28 192.03 0L192.03 0L192.03 0Q189.82 1.28 186.94 1.28ZM202.59-1.92L202.59-1.92L202.59-1.92Q201.09-3.58 200.42-6.21L200.42-6.21L200.42-6.21Q199.74-8.83 199.74-13.12L199.74-13.12L199.74-13.12Q199.74-17.41 201.22-21.31L201.22-21.31L201.22-21.31Q202.69-25.22 205.38-28.03L205.38-28.03L205.38-28.03Q210.88-33.92 219.97-33.92L219.97-33.92L219.97-33.92Q223.23-33.92 225.60-32.83L225.60-32.83L236.54-33.92L231.81-8.96L231.81-8.96Q231.62-8.19 231.62-6.78L231.62-6.78L231.62-6.78Q231.62-5.38 232.48-4.48L232.48-4.48L232.48-4.48Q233.34-3.58 234.62-3.46L234.62-3.46L234.62-3.46Q233.98-1.28 231.65 0L231.65 0L231.65 0Q229.31 1.28 226.69 1.28L226.69 1.28L226.69 1.28Q224.06 1.28 222.30 0.29L222.30 0.29L222.30 0.29Q220.54-0.70 220.03-2.37L220.03-2.37L220.03-2.37Q219.01-0.77 216.83 0.26L216.83 0.26L216.83 0.26Q214.66 1.28 211.74 1.28L211.74 1.28L211.74 1.28Q208.83 1.28 206.46 0.51L206.46 0.51L206.46 0.51Q204.10-0.26 202.59-1.92ZM216.10-27.90L216.10-27.90L216.10-27.90Q215.36-26.75 214.72-24.80L214.72-24.80L214.72-24.80Q214.08-22.85 213.02-17.63L213.02-17.63L213.02-17.63Q211.97-12.42 211.97-8.70L211.97-8.70L211.97-8.70Q211.97-4.99 212.54-3.90L212.54-3.90L212.54-3.90Q213.12-2.82 214.14-2.82L214.14-2.82L214.14-2.82Q216.19-2.82 217.70-4.77L217.70-4.77L217.70-4.77Q219.20-6.72 219.78-10.18L219.78-10.18L223.17-28.93L223.17-28.93Q221.82-30.08 220.26-30.08L220.26-30.08L220.26-30.08Q218.69-30.08 217.76-29.57L217.76-29.57L217.76-29.57Q216.83-29.06 216.10-27.90Z" fill="#000"></path></g></g><style>text {
  font-size: 64px;
  font-family: Arial Black;
  dominant-baseline: central;
  text-anchor: middle;
}</style></svg>