<svg width="113.325" height="21.05" viewBox="0 0 113.325 21.05" xmlns="http://www.w3.org/2000/svg"><g id="svgGroup" stroke-linecap="round" fill-rule="evenodd" font-size="9pt" stroke="#000" stroke-width="0.25mm" fill="#000" style="stroke:#000;stroke-width:0.25mm;fill:#000"><path d="M 1.55 15.7 L 1.55 13.85 A 4.184 4.184 0 0 0 2.155 14.323 A 5.696 5.696 0 0 0 2.813 14.688 A 3.569 3.569 0 0 0 3.682 14.965 Q 4.073 15.039 4.521 15.049 A 6.21 6.21 0 0 0 4.65 15.05 A 4.675 4.675 0 0 0 5.901 14.891 A 3.484 3.484 0 0 0 7.463 13.988 A 3.165 3.165 0 0 0 8.17 12.862 Q 8.525 11.934 8.525 10.575 A 8.23 8.23 0 0 0 8.467 9.566 Q 8.349 8.609 7.988 7.963 Q 7.45 7 6.563 6.575 Q 5.675 6.15 4.65 6.15 A 6.01 6.01 0 0 0 3.989 6.184 Q 3.506 6.238 3.125 6.375 A 8.684 8.684 0 0 0 2.461 6.644 A 6.91 6.91 0 0 0 2 6.875 L 2 15.175 L 0 15.175 L 0 6.925 A 2.325 2.325 0 0 1 0.02 6.607 Q 0.06 6.322 0.175 6.125 A 1.05 1.05 0 0 1 0.326 5.93 Q 0.494 5.755 0.785 5.571 A 4.421 4.421 0 0 1 0.9 5.5 Q 1.525 5.153 2.374 4.86 A 13.371 13.371 0 0 1 2.513 4.813 A 5.927 5.927 0 0 1 3.633 4.562 A 7.982 7.982 0 0 1 4.65 4.5 Q 6.3 4.5 7.638 5.138 Q 8.975 5.775 9.763 7.113 A 5.258 5.258 0 0 1 10.324 8.526 Q 10.55 9.438 10.55 10.575 A 9.783 9.783 0 0 1 10.45 12.016 Q 10.283 13.136 9.838 13.988 A 4.913 4.913 0 0 1 8.744 15.407 A 4.564 4.564 0 0 1 7.85 16.025 A 5.796 5.796 0 0 1 5.848 16.644 A 7.344 7.344 0 0 1 4.925 16.7 A 6.557 6.557 0 0 1 3.451 16.539 A 5.847 5.847 0 0 1 2.913 16.388 A 7.102 7.102 0 0 1 2.401 16.196 Q 1.849 15.964 1.55 15.7 Z M 86.9 14.4 L 86.9 6 L 88.9 5.975 L 88.9 14.475 A 1.728 1.728 0 0 1 88.873 14.789 Q 88.824 15.052 88.688 15.238 A 1.611 1.611 0 0 1 88.485 15.46 Q 88.375 15.562 88.233 15.663 A 3.595 3.595 0 0 1 88.025 15.8 A 3.583 3.583 0 0 1 87.634 16.018 Q 87.209 16.223 86.6 16.413 A 6.147 6.147 0 0 1 85.556 16.635 Q 85.047 16.7 84.475 16.7 A 8.806 8.806 0 0 1 82.831 16.553 A 6.711 6.711 0 0 1 81.3 16.075 Q 79.925 15.45 79.15 14.113 Q 78.375 12.775 78.375 10.65 A 10.201 10.201 0 0 1 78.465 9.252 Q 78.637 8.011 79.138 7.125 A 4.985 4.985 0 0 1 80.249 5.759 A 4.578 4.578 0 0 1 81.2 5.138 A 6.311 6.311 0 0 1 83.762 4.506 A 7.373 7.373 0 0 1 84.05 4.5 A 6.202 6.202 0 0 1 85.68 4.711 A 5.775 5.775 0 0 1 85.9 4.775 Q 86.775 5.05 87.275 5.45 L 87.275 7.3 A 3.471 3.471 0 0 0 86.689 6.834 Q 86.395 6.646 86.038 6.488 A 3.822 3.822 0 0 0 85.111 6.217 A 5.273 5.273 0 0 0 84.25 6.15 Q 83.225 6.15 82.35 6.588 A 3.011 3.011 0 0 0 81.258 7.527 A 3.984 3.984 0 0 0 80.95 8.025 A 4.046 4.046 0 0 0 80.613 8.939 Q 80.507 9.366 80.461 9.87 A 9.11 9.11 0 0 0 80.425 10.7 A 7.473 7.473 0 0 0 80.512 11.882 Q 80.734 13.267 81.525 14.013 A 3.718 3.718 0 0 0 83.379 14.948 A 5.377 5.377 0 0 0 84.45 15.05 Q 85.074 15.05 85.539 14.955 A 3.023 3.023 0 0 0 85.888 14.863 A 5.256 5.256 0 0 0 86.547 14.594 A 4.416 4.416 0 0 0 86.9 14.4 Z M 109.6 11.45 L 107.525 10.9 A 6.682 6.682 0 0 1 106.652 10.625 Q 106.217 10.452 105.879 10.23 A 2.89 2.89 0 0 1 105.3 9.738 A 2.751 2.751 0 0 1 104.619 8.15 A 3.649 3.649 0 0 1 104.6 7.775 A 2.942 2.942 0 0 1 105.453 5.692 A 4.035 4.035 0 0 1 105.675 5.475 A 3.335 3.335 0 0 1 106.829 4.809 Q 107.711 4.5 108.95 4.5 A 9.816 9.816 0 0 1 109.92 4.545 Q 110.508 4.604 111 4.738 Q 111.875 4.975 112.363 5.363 A 1.733 1.733 0 0 1 112.606 5.595 Q 112.732 5.743 112.793 5.899 A 0.822 0.822 0 0 1 112.85 6.2 A 1.104 1.104 0 0 1 112.797 6.546 A 0.978 0.978 0 0 1 112.688 6.775 Q 112.525 7.025 112.25 7.15 Q 111.95 6.95 111.488 6.713 Q 111.039 6.482 110.439 6.323 A 7.277 7.277 0 0 0 110.4 6.313 A 5.009 5.009 0 0 0 109.581 6.174 A 6.3 6.3 0 0 0 109.025 6.15 Q 107.925 6.15 107.25 6.575 A 1.534 1.534 0 0 0 106.839 6.943 Q 106.593 7.268 106.576 7.711 A 1.731 1.731 0 0 0 106.575 7.775 Q 106.575 8.325 106.963 8.738 A 1.627 1.627 0 0 0 107.336 9.027 Q 107.682 9.228 108.2 9.35 L 109.925 9.775 Q 111.131 10.059 111.909 10.575 A 3.535 3.535 0 0 1 112.475 11.038 A 2.906 2.906 0 0 1 113.278 12.673 A 4.055 4.055 0 0 1 113.325 13.3 A 3.484 3.484 0 0 1 113.149 14.433 A 2.863 2.863 0 0 1 112.15 15.8 A 3.864 3.864 0 0 1 110.972 16.399 Q 110.036 16.7 108.75 16.7 A 10.147 10.147 0 0 1 107.526 16.631 Q 106.884 16.552 106.347 16.386 A 4.822 4.822 0 0 1 105.65 16.113 Q 104.45 15.525 104.45 14.825 Q 104.45 14.525 104.613 14.238 Q 104.775 13.95 105.1 13.775 A 8.266 8.266 0 0 0 105.929 14.285 A 10.789 10.789 0 0 0 106.675 14.65 A 4.596 4.596 0 0 0 107.931 14.998 A 5.909 5.909 0 0 0 108.725 15.05 A 5.716 5.716 0 0 0 109.641 14.983 Q 111.257 14.719 111.322 13.411 A 2.246 2.246 0 0 0 111.325 13.3 A 1.962 1.962 0 0 0 111.25 12.745 A 1.538 1.538 0 0 0 110.888 12.113 Q 110.45 11.65 109.6 11.45 Z M 17 9.6 L 20.55 9.25 L 20.55 8.55 A 3.293 3.293 0 0 0 20.484 7.867 Q 20.396 7.452 20.19 7.143 A 1.724 1.724 0 0 0 19.8 6.725 Q 19.05 6.15 17.775 6.15 Q 16.75 6.15 15.813 6.45 Q 14.875 6.75 14.15 7.125 A 2.13 2.13 0 0 1 13.85 6.799 A 2.429 2.429 0 0 1 13.788 6.713 A 0.981 0.981 0 0 1 13.671 6.488 A 0.779 0.779 0 0 1 13.625 6.225 A 0.98 0.98 0 0 1 14.024 5.425 A 1.733 1.733 0 0 1 14.35 5.225 Q 15.025 4.875 15.913 4.688 A 8.788 8.788 0 0 1 17.307 4.512 A 10.233 10.233 0 0 1 17.8 4.5 A 7.864 7.864 0 0 1 19.189 4.615 Q 19.954 4.753 20.568 5.054 A 4.081 4.081 0 0 1 21.25 5.475 Q 22.525 6.45 22.525 8.55 L 22.525 14.475 A 2.283 2.283 0 0 1 22.505 14.786 Q 22.46 15.113 22.313 15.313 Q 22.137 15.549 21.818 15.761 A 3.179 3.179 0 0 1 21.675 15.85 Q 21.075 16.175 20.075 16.45 Q 19.075 16.725 17.825 16.725 A 9.647 9.647 0 0 1 16.46 16.635 Q 15.073 16.436 14.188 15.8 Q 12.9 14.875 12.9 13.125 A 3.875 3.875 0 0 1 13.029 12.098 A 2.741 2.741 0 0 1 13.988 10.638 A 4.268 4.268 0 0 1 15.168 9.988 Q 15.962 9.694 17 9.6 Z M 69.85 9.6 L 73.4 9.25 L 73.4 8.55 A 3.293 3.293 0 0 0 73.334 7.867 Q 73.246 7.452 73.04 7.143 A 1.724 1.724 0 0 0 72.65 6.725 Q 71.9 6.15 70.625 6.15 Q 69.6 6.15 68.663 6.45 Q 67.725 6.75 67 7.125 A 2.13 2.13 0 0 1 66.7 6.799 A 2.429 2.429 0 0 1 66.638 6.713 A 0.981 0.981 0 0 1 66.521 6.488 A 0.779 0.779 0 0 1 66.475 6.225 A 0.98 0.98 0 0 1 66.874 5.425 A 1.733 1.733 0 0 1 67.2 5.225 Q 67.875 4.875 68.763 4.688 A 8.788 8.788 0 0 1 70.157 4.512 A 10.233 10.233 0 0 1 70.65 4.5 A 7.864 7.864 0 0 1 72.039 4.615 Q 72.804 4.753 73.418 5.054 A 4.081 4.081 0 0 1 74.1 5.475 Q 75.375 6.45 75.375 8.55 L 75.375 14.475 A 2.283 2.283 0 0 1 75.355 14.786 Q 75.31 15.113 75.163 15.313 Q 74.987 15.549 74.668 15.761 A 3.179 3.179 0 0 1 74.525 15.85 Q 73.925 16.175 72.925 16.45 Q 71.925 16.725 70.675 16.725 A 9.647 9.647 0 0 1 69.31 16.635 Q 67.923 16.436 67.038 15.8 Q 65.75 14.875 65.75 13.125 A 3.875 3.875 0 0 1 65.879 12.098 A 2.741 2.741 0 0 1 66.838 10.638 A 4.268 4.268 0 0 1 68.018 9.988 Q 68.812 9.694 69.85 9.6 Z M 96 9.6 L 99.55 9.25 L 99.55 8.55 A 3.293 3.293 0 0 0 99.484 7.867 Q 99.396 7.452 99.19 7.143 A 1.724 1.724 0 0 0 98.8 6.725 Q 98.05 6.15 96.775 6.15 Q 95.75 6.15 94.813 6.45 Q 93.875 6.75 93.15 7.125 A 2.13 2.13 0 0 1 92.85 6.799 A 2.429 2.429 0 0 1 92.788 6.713 A 0.981 0.981 0 0 1 92.671 6.488 A 0.779 0.779 0 0 1 92.625 6.225 A 0.98 0.98 0 0 1 93.024 5.425 A 1.733 1.733 0 0 1 93.35 5.225 Q 94.025 4.875 94.913 4.688 A 8.788 8.788 0 0 1 96.307 4.512 A 10.233 10.233 0 0 1 96.8 4.5 A 7.864 7.864 0 0 1 98.189 4.615 Q 98.954 4.753 99.568 5.054 A 4.081 4.081 0 0 1 100.25 5.475 Q 101.525 6.45 101.525 8.55 L 101.525 14.475 A 2.283 2.283 0 0 1 101.505 14.786 Q 101.46 15.113 101.313 15.313 Q 101.137 15.549 100.818 15.761 A 3.179 3.179 0 0 1 100.675 15.85 Q 100.075 16.175 99.075 16.45 Q 98.075 16.725 96.825 16.725 A 9.647 9.647 0 0 1 95.46 16.635 Q 94.073 16.436 93.188 15.8 Q 91.9 14.875 91.9 13.125 A 3.875 3.875 0 0 1 92.029 12.098 A 2.741 2.741 0 0 1 92.988 10.638 A 4.268 4.268 0 0 1 94.168 9.988 Q 94.962 9.694 96 9.6 Z M 42.897 12.224 A 8.246 8.246 0 0 0 43.05 10.6 A 8.359 8.359 0 0 0 42.923 9.109 A 6.087 6.087 0 0 0 42.338 7.363 Q 41.625 6 40.35 5.25 A 5.232 5.232 0 0 0 38.957 4.685 A 6.51 6.51 0 0 0 37.375 4.5 A 6.993 6.993 0 0 0 36.451 4.559 A 5.496 5.496 0 0 0 34.388 5.25 Q 33.1 6 32.388 7.363 A 6.063 6.063 0 0 0 31.811 9.057 A 8.31 8.31 0 0 0 31.675 10.6 A 8.466 8.466 0 0 0 31.782 11.973 A 6.31 6.31 0 0 0 32.375 13.825 Q 33.075 15.2 34.363 15.95 A 5.317 5.317 0 0 0 35.807 16.524 A 6.704 6.704 0 0 0 37.375 16.7 A 7.044 7.044 0 0 0 38.434 16.623 A 5.384 5.384 0 0 0 40.375 15.95 Q 41.65 15.2 42.35 13.825 A 6.199 6.199 0 0 0 42.897 12.224 Z M 55.475 8.375 L 55.475 11.25 L 53.475 11.25 L 53.475 8.525 Q 53.475 7.684 53.139 7.149 A 1.711 1.711 0 0 0 52.763 6.725 A 2.48 2.48 0 0 0 51.799 6.256 Q 51.436 6.164 51.008 6.152 A 4.644 4.644 0 0 0 50.875 6.15 Q 50.1 6.15 49.375 6.4 Q 48.726 6.624 48.258 6.907 A 3.988 3.988 0 0 0 48.15 6.975 L 48.15 11.25 L 46.15 11.25 L 46.15 7.075 A 1.964 1.964 0 0 1 46.188 6.68 A 1.418 1.418 0 0 1 46.363 6.225 A 1.492 1.492 0 0 1 46.576 5.955 Q 46.691 5.839 46.842 5.725 A 3.478 3.478 0 0 1 47.1 5.55 A 5.396 5.396 0 0 1 47.747 5.206 Q 48.088 5.051 48.489 4.916 A 10.31 10.31 0 0 1 48.813 4.813 Q 49.85 4.5 50.9 4.5 A 7.144 7.144 0 0 1 52.029 4.585 A 5.29 5.29 0 0 1 53.15 4.888 Q 54.03 5.237 54.503 5.821 A 2.399 2.399 0 0 1 54.6 5.95 A 4.408 4.408 0 0 1 54.705 6.059 Q 54.762 6.119 54.809 6.175 A 2.398 2.398 0 0 1 54.85 6.225 Q 54.928 6.322 55.005 6.465 A 2.693 2.693 0 0 1 55.05 6.55 Q 55.186 6.783 55.292 7.122 A 4.663 4.663 0 0 1 55.35 7.325 A 3.745 3.745 0 0 1 55.454 7.924 A 4.765 4.765 0 0 1 55.475 8.375 Z M 62.8 8.425 L 62.8 11.25 L 60.8 11.25 L 60.8 8.525 Q 60.8 7.3 60.1 6.725 A 2.41 2.41 0 0 0 59.166 6.261 Q 58.821 6.171 58.415 6.154 A 4.569 4.569 0 0 0 58.225 6.15 Q 57.35 6.15 56.538 6.513 A 4.65 4.65 0 0 0 55.076 7.549 A 6.035 6.035 0 0 0 55.075 7.55 L 54.275 6.1 A 4.832 4.832 0 0 1 55.052 5.476 Q 55.415 5.239 55.849 5.033 A 8.004 8.004 0 0 1 55.975 4.975 A 5.29 5.29 0 0 1 57.443 4.561 A 6.841 6.841 0 0 1 58.375 4.5 A 7.215 7.215 0 0 1 59.487 4.581 Q 60.094 4.676 60.607 4.881 A 4.385 4.385 0 0 1 60.713 4.925 Q 61.7 5.35 62.25 6.225 A 3.416 3.416 0 0 1 62.679 7.282 Q 62.8 7.804 62.8 8.425 Z M 37.375 6.15 A 3.804 3.804 0 0 0 36.138 6.342 A 3.156 3.156 0 0 0 34.713 7.338 A 4.009 4.009 0 0 0 33.949 8.824 Q 33.781 9.414 33.739 10.118 A 8.081 8.081 0 0 0 33.725 10.6 A 7.394 7.394 0 0 0 33.829 11.879 Q 33.953 12.586 34.226 13.15 A 3.659 3.659 0 0 0 34.688 13.875 A 3.139 3.139 0 0 0 36.805 15.015 A 4.537 4.537 0 0 0 37.375 15.05 A 3.907 3.907 0 0 0 38.546 14.883 A 3.061 3.061 0 0 0 40.038 13.863 Q 40.867 12.839 40.982 11.157 A 8.19 8.19 0 0 0 41 10.6 A 7.235 7.235 0 0 0 40.891 9.306 Q 40.759 8.578 40.465 7.999 A 3.726 3.726 0 0 0 40.038 7.338 A 3.14 3.14 0 0 0 37.801 6.17 A 4.487 4.487 0 0 0 37.375 6.15 Z M 28.375 0.9 L 28.375 11.025 L 26.375 10.75 L 26.375 0.175 A 1.353 1.353 0 0 1 26.456 0.146 Q 26.574 0.107 26.763 0.063 Q 27.025 0 27.3 0 A 2.275 2.275 0 0 1 27.587 0.017 Q 27.906 0.057 28.092 0.197 A 0.669 0.669 0 0 1 28.113 0.213 Q 28.335 0.392 28.369 0.76 A 1.514 1.514 0 0 1 28.375 0.9 Z M 20.55 14.45 L 20.55 10.825 L 17.45 11.15 A 6.455 6.455 0 0 0 16.772 11.236 Q 16.038 11.372 15.599 11.672 A 1.805 1.805 0 0 0 15.525 11.725 A 1.543 1.543 0 0 0 14.92 12.79 A 2.292 2.292 0 0 0 14.9 13.1 A 1.854 1.854 0 0 0 15.026 13.797 Q 15.197 14.222 15.598 14.521 A 2.14 2.14 0 0 0 15.638 14.55 A 2.42 2.42 0 0 0 16.307 14.875 Q 16.628 14.978 17.022 15.028 A 6.401 6.401 0 0 0 17.825 15.075 A 8.577 8.577 0 0 0 18.533 15.048 Q 19.122 14.999 19.563 14.863 A 8.256 8.256 0 0 0 19.882 14.757 Q 20.212 14.64 20.421 14.527 A 1.639 1.639 0 0 0 20.55 14.45 Z M 73.4 14.45 L 73.4 10.825 L 70.3 11.15 A 6.455 6.455 0 0 0 69.622 11.236 Q 68.888 11.372 68.449 11.672 A 1.805 1.805 0 0 0 68.375 11.725 A 1.543 1.543 0 0 0 67.77 12.79 A 2.292 2.292 0 0 0 67.75 13.1 A 1.854 1.854 0 0 0 67.876 13.797 Q 68.047 14.222 68.448 14.521 A 2.14 2.14 0 0 0 68.488 14.55 A 2.42 2.42 0 0 0 69.157 14.875 Q 69.478 14.978 69.872 15.028 A 6.401 6.401 0 0 0 70.675 15.075 A 8.577 8.577 0 0 0 71.383 15.048 Q 71.972 14.999 72.413 14.863 A 8.256 8.256 0 0 0 72.732 14.757 Q 73.062 14.64 73.271 14.527 A 1.639 1.639 0 0 0 73.4 14.45 Z M 99.55 14.45 L 99.55 10.825 L 96.45 11.15 A 6.455 6.455 0 0 0 95.772 11.236 Q 95.038 11.372 94.599 11.672 A 1.805 1.805 0 0 0 94.525 11.725 A 1.543 1.543 0 0 0 93.92 12.79 A 2.292 2.292 0 0 0 93.9 13.1 A 1.854 1.854 0 0 0 94.026 13.797 Q 94.197 14.222 94.598 14.521 A 2.14 2.14 0 0 0 94.638 14.55 A 2.42 2.42 0 0 0 95.307 14.875 Q 95.628 14.978 96.022 15.028 A 6.401 6.401 0 0 0 96.825 15.075 A 8.577 8.577 0 0 0 97.533 15.048 Q 98.122 14.999 98.563 14.863 A 8.256 8.256 0 0 0 98.882 14.757 Q 99.212 14.64 99.421 14.527 A 1.639 1.639 0 0 0 99.55 14.45 Z M 26.375 15.6 L 26.375 9.775 L 28.375 10.075 L 28.375 16.325 A 1.485 1.485 0 0 1 28.295 16.354 Q 28.18 16.393 28 16.438 A 2.073 2.073 0 0 1 27.677 16.49 A 2.615 2.615 0 0 1 27.45 16.5 A 2.077 2.077 0 0 1 27.15 16.48 Q 26.996 16.457 26.872 16.41 A 0.866 0.866 0 0 1 26.65 16.288 Q 26.408 16.101 26.379 15.711 A 1.485 1.485 0 0 1 26.375 15.6 Z M 53.475 15.6 L 53.475 9.925 L 55.475 9.925 L 55.475 16.325 A 1.353 1.353 0 0 1 55.394 16.354 Q 55.276 16.393 55.088 16.438 Q 54.825 16.5 54.55 16.5 A 2.275 2.275 0 0 1 54.263 16.483 Q 53.944 16.443 53.758 16.304 A 0.669 0.669 0 0 1 53.738 16.288 Q 53.515 16.108 53.481 15.74 A 1.514 1.514 0 0 1 53.475 15.6 Z M 60.8 15.6 L 60.8 9.925 L 62.8 9.925 L 62.8 16.325 A 1.353 1.353 0 0 1 62.719 16.354 Q 62.601 16.393 62.413 16.438 Q 62.15 16.5 61.875 16.5 A 2.275 2.275 0 0 1 61.588 16.483 Q 61.269 16.443 61.083 16.304 A 0.669 0.669 0 0 1 61.063 16.288 Q 60.84 16.108 60.806 15.74 A 1.514 1.514 0 0 1 60.8 15.6 Z M 46.15 15.6 L 46.15 9.925 L 48.15 9.925 L 48.15 16.325 A 1.485 1.485 0 0 1 48.07 16.354 Q 47.955 16.393 47.775 16.438 A 2.073 2.073 0 0 1 47.452 16.49 A 2.615 2.615 0 0 1 47.225 16.5 A 2.077 2.077 0 0 1 46.925 16.48 Q 46.771 16.457 46.647 16.41 A 0.866 0.866 0 0 1 46.425 16.288 Q 46.183 16.101 46.154 15.711 A 1.485 1.485 0 0 1 46.15 15.6 Z M 0 20.125 L 0 14.45 L 2 14.5 L 2 20.875 A 1.485 1.485 0 0 1 1.92 20.904 Q 1.805 20.943 1.625 20.988 A 2.073 2.073 0 0 1 1.302 21.04 A 2.615 2.615 0 0 1 1.075 21.05 A 1.961 1.961 0 0 1 0.773 21.028 Q 0.619 21.004 0.494 20.953 A 0.852 0.852 0 0 1 0.275 20.825 A 0.706 0.706 0 0 1 0.047 20.476 Q 0.012 20.36 0.003 20.221 A 1.513 1.513 0 0 1 0 20.125 Z M 88.9 0.9 L 88.9 6.475 L 86.9 6.5 L 86.9 0.175 A 1.353 1.353 0 0 1 86.981 0.146 Q 87.099 0.107 87.288 0.063 Q 87.55 0 87.825 0 A 2.275 2.275 0 0 1 88.112 0.017 Q 88.431 0.057 88.617 0.197 A 0.669 0.669 0 0 1 88.638 0.213 Q 88.86 0.392 88.894 0.76 A 1.514 1.514 0 0 1 88.9 0.9 Z" vector-effect="non-scaling-stroke"/></g></svg>